<svg id="Layer_1" data-name="Layer 1" xmlns="http://www.w3.org/2000/svg" viewBox="0 0 37.5 30"><defs><style>.cls-1{fill:#57585a;}</style></defs><title>Artboard 6</title><g id="Group_22" data-name="Group 22"><path id="Path_369" data-name="Path 369" class="cls-1" d="M7.47,7.41V.93A.85.85,0,0,1,7.54.46,1.32,1.32,0,0,1,8,.24L8.33.17V7.41H9.57V0h.79V7.41h1.23V0H27.87a5.57,5.57,0,0,1,2.87.77,6.06,6.06,0,0,1,2.13,2.08,5.48,5.48,0,0,1,.85,2.81c0,.57,0,1.25,0,2.05,0,1.7,0,2.39,0,2.09H24.5A.6.6,0,0,1,24,9.6a7.82,7.82,0,0,0-3.4-1.85,7.38,7.38,0,0,0-3.79,0,7.94,7.94,0,0,0-3.4,1.86.48.48,0,0,1-.34.18H4l-.17,0V8.47c0,.27,0-.25,0-1.58,0-.52,0-1,.07-1.57A5.57,5.57,0,0,1,6.13,1.17l.14,0V7.41ZM25,10.73h8.7V24.2a5.55,5.55,0,0,1-.79,2.92A5.82,5.82,0,0,1,27.87,30H9.63a5.37,5.37,0,0,1-2.92-.76,5.91,5.91,0,0,1-2.15-2.12,5.48,5.48,0,0,1-.81-2.92V10.76h8.7a7.52,7.52,0,0,0-1,6.93A7.68,7.68,0,0,0,21,22.45a7.37,7.37,0,0,0,2.89-1.61,7.24,7.24,0,0,0,1.93-2.74,7.75,7.75,0,0,0,.58-3.56A8.16,8.16,0,0,0,25,10.73ZM18.75,21a6.11,6.11,0,0,1-3-.77,5.62,5.62,0,0,1-2.17-2.13,5.89,5.89,0,0,1,2.17-8.06,5.76,5.76,0,0,1,3-.8,5.7,5.7,0,0,1,3,.8,6,6,0,0,1,2.15,2.16A5.85,5.85,0,0,1,18.75,21Zm4.33-5.87a4.37,4.37,0,0,0-2.16-3.77,4.42,4.42,0,0,0-4.37,0A4.34,4.34,0,0,0,15,17.31a4.41,4.41,0,0,0,1.58,1.6,4.19,4.19,0,0,0,2.18.6,4.38,4.38,0,0,0,3.77-2.16,4.26,4.26,0,0,0,.58-2.2ZM31,5V3.46a1,1,0,0,0-.26-.7.88.88,0,0,0-.67-.25c-1.06,0-2.12,0-3.2,0a.86.86,0,0,0-.69.27,1,1,0,0,0-.24.72V6.65a1,1,0,0,0,.26.7.89.89,0,0,0,.67.26H30a.89.89,0,0,0,1-.81V5Z"/></g></svg>