<svg id="Layer_1" data-name="Layer 1" xmlns="http://www.w3.org/2000/svg" viewBox="0 0 66 29"><defs><style>.cls-1{fill:#998675;}.cls-2{fill:#754c24;}.cls-3{fill:#603813;}.cls-4{fill:#c69c6d;}.cls-5{fill:#3d3f43;}</style></defs><title>Artboard 1</title><path class="cls-1" d="M28.49,27.75a1.05,1.05,0,0,1-1,1.16c-1,0-6.73.17-10.84,0h-.11l-4.15,0c-2.23,0-4.46,0-6.71,0-1.77,0-2.11-.78-1.33-2.34a72,72,0,0,1,3.55-7.08,5.29,5.29,0,0,1,3.25-1.91,6.29,6.29,0,0,1,1.45-.09,1.67,1.67,0,0,1,.43,0,58.74,58.74,0,0,1,8.26,2.11s4.9,1.49,6.46,2.9C28.7,23.4,28.49,25.66,28.49,27.75Z"/><path class="cls-1" d="M28.49,6.07c0,6,.21,5.2-5.28,4.6-1.39-.16-3.56-1.14-3.84-2-.71-2.21,0-4.57.58-6.95C20.16.94,20.61.6,21.13.6h3.5C28.6.6,28.59.54,28.49,6.07Z"/><path class="cls-2" d="M.83,4.64C3,5.78,5.3,6.63,7.16,8.13s.73,3.85.27,5.81c-.41,1.78-1.9,1.4-3.14,1.43a5.6,5.6,0,0,1-2.35,0c-.71-.33-1.79-1.3-1.8-2,0-3.6,0-5.24,0-8C.15,4.92.39,4.41.83,4.64Z"/><path class="cls-3" d="M17.29,4.58c-.1,3.33-.49,3.83-3,3.79a6.1,6.1,0,0,1-1.91-.31.11.11,0,0,1-.07,0C10.62,7.56,6.2,4.92,5.68,4.71,3.91,4,2.15,3.24.44,2.33,0,1.89.1.7.67.61H13.83a0,0,0,0,1,0,0h0a6.12,6.12,0,0,1,.62,0C17,.7,17.38,1.21,17.29,4.58Z"/><path class="cls-2" d="M28.21,20c-.49.83-5.31-1.74-7.6-3a2.28,2.28,0,0,1-1.14-2.58c.49-1.84,1.53-1.67,2.42-1.75a21.33,21.33,0,0,1,4.73.51c1.3.18,1.87.92,1.86,2.37S28.57,19.39,28.21,20Z"/><path class="cls-3" d="M.68,28.91c-.76,0-.54-7.54-.46-9.54s6.36-2.9,5.88-1.26S2.69,28.91.68,28.91Z"/><path class="cls-4" d="M15.29,16.54c-2.07-.82-4.39-.14-5.69.14-.52.12-.61-1.12-.48-2a16.81,16.81,0,0,1,1-2.92,2.72,2.72,0,0,1,1.51-1.57c2.3-.41,5.93-.35,5.64,1.84C17,14.51,18.8,18.41,15.29,16.54Z"/><path class="cls-5" d="M33.21,4.7V7.12H31.89V.39h2.34a2.12,2.12,0,0,1,1.59.6,2.11,2.11,0,0,1,.58,1.56,2.14,2.14,0,0,1-.58,1.56,2.15,2.15,0,0,1-1.59.59Zm0-1.05h1a.72.72,0,0,0,.64-.31,1.29,1.29,0,0,0,.23-.78,1.4,1.4,0,0,0-.22-.8.75.75,0,0,0-.65-.32h-1Z"/><path class="cls-5" d="M40.27,5.68H38.49l-.36,1.44H36.81L38.7.39h1.37L42,7.12H40.63Zm-1.51-1H40l-.61-2.38h0Z"/><path class="cls-5" d="M44.43,4.7V7.12H43.11V.39h2.34A2.12,2.12,0,0,1,47,1a2.11,2.11,0,0,1,.58,1.56A2.14,2.14,0,0,1,47,4.11a2.15,2.15,0,0,1-1.59.59Zm0-1.05h1a.72.72,0,0,0,.64-.31,1.29,1.29,0,0,0,.23-.78,1.4,1.4,0,0,0-.22-.8.75.75,0,0,0-.65-.32h-1Z"/><path class="cls-5" d="M53.82,7.12H52.5V4.33H50.42V7.12H49.1V.39h1.32V3.28H52.5V.39h1.32Z"/><path class="cls-5" d="M60,4.7a2.54,2.54,0,0,1-.64,1.85,2.52,2.52,0,0,1-3.42,0,2.58,2.58,0,0,1-.63-1.85V2.82A2.58,2.58,0,0,1,55.94,1a2.48,2.48,0,0,1,3.41,0A2.5,2.5,0,0,1,60,2.82ZM58.69,2.8a1.93,1.93,0,0,0-.26-1.09.93.93,0,0,0-.79-.37.89.89,0,0,0-.77.37,1.9,1.9,0,0,0-.26,1.09V4.7a1.92,1.92,0,0,0,.26,1.1,1,1,0,0,0,1.56,0,1.92,1.92,0,0,0,.26-1.1Z"/><path class="cls-5" d="M64.48,5.36a.88.88,0,0,0-.21-.62,2.06,2.06,0,0,0-.71-.45A4.7,4.7,0,0,1,62,3.46a1.67,1.67,0,0,1-.52-1.3A1.69,1.69,0,0,1,62.07.81,2.37,2.37,0,0,1,63.63.29a2.18,2.18,0,0,1,1.56.58,1.92,1.92,0,0,1,.58,1.47v0H64.49a1.17,1.17,0,0,0-.23-.74.77.77,0,0,0-.65-.29.8.8,0,0,0-.62.24.89.89,0,0,0-.22.6.66.66,0,0,0,.25.54,2.94,2.94,0,0,0,.85.48A3.62,3.62,0,0,1,65.31,4a1.85,1.85,0,0,1,.48,1.34,1.69,1.69,0,0,1-.58,1.37,2.33,2.33,0,0,1-1.55.5A2.58,2.58,0,0,1,62,6.65,1.89,1.89,0,0,1,61.31,5V5H62.6a1.23,1.23,0,0,0,.27.89,1.05,1.05,0,0,0,.79.28A.8.8,0,0,0,64.28,6,.85.85,0,0,0,64.48,5.36Z"/><path class="cls-1" d="M36.76,13.26h-1l-.17-.92a1.79,1.79,0,0,0-.52-.19,2.71,2.71,0,0,0-.71-.09,1.35,1.35,0,0,0-.86.24.71.71,0,0,0-.3.6.64.64,0,0,0,.32.56,4.07,4.07,0,0,0,1.09.46,4.37,4.37,0,0,1,1.69.82,1.72,1.72,0,0,1,.57,1.34,1.61,1.61,0,0,1-.68,1.36,3,3,0,0,1-1.8.5,3.9,3.9,0,0,1-1.45-.25A2.91,2.91,0,0,1,31.85,17v-1.4h1l.15,1a1.48,1.48,0,0,0,.55.27,2.67,2.67,0,0,0,.78.11,1.33,1.33,0,0,0,.84-.23.73.73,0,0,0,.29-.6.78.78,0,0,0-.28-.63,2.89,2.89,0,0,0-1-.44,5.59,5.59,0,0,1-1.81-.82,1.57,1.57,0,0,1-.62-1.31,1.6,1.6,0,0,1,.7-1.33A2.86,2.86,0,0,1,34.27,11a3.93,3.93,0,0,1,1.41.24,3.34,3.34,0,0,1,1.08.63Z"/><path class="cls-1" d="M44,11.12v1.79H43l-.05-.76H41.7V16.9l.72.13v.81H39.63V17l.72-.13V12.15H39.11l0,.76H38V11.12Z"/><path class="cls-1" d="M51,14.53A3.56,3.56,0,0,1,50.19,17a2.81,2.81,0,0,1-2.22,1,2.76,2.76,0,0,1-2.2-1,3.56,3.56,0,0,1-.84-2.44v-.1A3.6,3.6,0,0,1,45.77,12a3,3,0,0,1,4.41,0A3.56,3.56,0,0,1,51,14.43Zm-1.34-.11a3,3,0,0,0-.44-1.7A1.45,1.45,0,0,0,48,12.07a1.41,1.41,0,0,0-1.27.65,3.08,3.08,0,0,0-.42,1.7v.11a3.09,3.09,0,0,0,.42,1.71,1.42,1.42,0,0,0,1.27.65,1.46,1.46,0,0,0,1.29-.65,3.09,3.09,0,0,0,.43-1.71Z"/><path class="cls-1" d="M59.17,11.12v.81l-.72.14v5.77H57.1l-2.72-4.53h0V16.9l.72.13v.81H52.29V17L53,16.9V12.07l-.72-.14v-.81h2.07l2.71,4.52h0V12.07l-.72-.14v-.81h2.79Z"/><path class="cls-1" d="M64.66,14.89H62.39v1.92h2.17l.06-.81h1v1.84H60.32V17L61,16.9V12.07l-.72-.14v-.81h5.31V13h-1l-.06-.81H62.39v1.7h2.27Z"/><path class="cls-5" d="M33.58,21.84l1.2,4.94h0L36,21.84h1.71v6.73h-1.3v-2L36.55,24h0l-1.29,4.58h-.87L33.09,24h0l.12,2.57v2H31.87V21.84Z"/><path class="cls-5" d="M42.14,27.13H40.37L40,28.57H38.68l1.9-6.73h1.36l1.89,6.73H42.51Zm-1.5-1.05h1.23l-.6-2.38h0Z"/><path class="cls-5" d="M47.6,26.81a.92.92,0,0,0-.2-.62,2.24,2.24,0,0,0-.72-.45,4.64,4.64,0,0,1-1.57-.83,1.64,1.64,0,0,1-.53-1.3,1.72,1.72,0,0,1,.61-1.35,2.37,2.37,0,0,1,1.56-.52,2.18,2.18,0,0,1,1.56.58,1.88,1.88,0,0,1,.58,1.47v0H47.61a1.22,1.22,0,0,0-.23-.75.78.78,0,0,0-.65-.28.81.81,0,0,0-.62.24.84.84,0,0,0-.21.59.69.69,0,0,0,.24.55,3.37,3.37,0,0,0,.85.48,3.62,3.62,0,0,1,1.44.82,1.85,1.85,0,0,1,.48,1.34,1.69,1.69,0,0,1-.58,1.37,2.31,2.31,0,0,1-1.55.49,2.55,2.55,0,0,1-1.66-.56,1.86,1.86,0,0,1-.68-1.61v0h1.28a1.23,1.23,0,0,0,.26.89,1,1,0,0,0,.79.27.78.78,0,0,0,.62-.22A.89.89,0,0,0,47.6,26.81Z"/><path class="cls-5" d="M54.6,26.15A2.54,2.54,0,0,1,54,28a2.55,2.55,0,0,1-3.42,0,2.58,2.58,0,0,1-.63-1.85V24.27a2.58,2.58,0,0,1,.63-1.85,2.48,2.48,0,0,1,3.41,0,2.54,2.54,0,0,1,.65,1.85Zm-1.31-1.9A1.85,1.85,0,0,0,53,23.16a1,1,0,0,0-1.55,0,1.83,1.83,0,0,0-.26,1.09v1.9a1.92,1.92,0,0,0,.26,1.1.92.92,0,0,0,.78.37.89.89,0,0,0,.77-.37,1.84,1.84,0,0,0,.27-1.1Z"/><path class="cls-5" d="M60.42,28.57H59.11l-2.06-4.3h0v4.29H55.71V21.84H57l2,4.3h0V21.84h1.31Z"/><path class="cls-5" d="M64.69,26.81a.88.88,0,0,0-.21-.62,2.06,2.06,0,0,0-.71-.45,4.7,4.7,0,0,1-1.58-.83,1.64,1.64,0,0,1-.52-1.3,1.69,1.69,0,0,1,.61-1.35,2.37,2.37,0,0,1,1.56-.52,2.18,2.18,0,0,1,1.56.58A1.92,1.92,0,0,1,66,23.79v0H64.7a1.22,1.22,0,0,0-.23-.75.81.81,0,0,0-.66-.28.79.79,0,0,0-.61.24.84.84,0,0,0-.22.59.67.67,0,0,0,.25.55,3.2,3.2,0,0,0,.85.48,3.69,3.69,0,0,1,1.44.82A1.85,1.85,0,0,1,66,26.8a1.69,1.69,0,0,1-.58,1.37,2.32,2.32,0,0,1-1.55.49,2.57,2.57,0,0,1-1.67-.56,1.89,1.89,0,0,1-.68-1.61v0h1.28a1.23,1.23,0,0,0,.27.89,1,1,0,0,0,.79.27.8.8,0,0,0,.62-.22A.89.89,0,0,0,64.69,26.81Z"/></svg>